<svg width="16" height="16" viewBox="0 0 16 16" fill="none" xmlns="http://www.w3.org/2000/svg">
<path d="M7.35345 5.68686C7.54872 5.4916 7.54872 5.17502 7.35345 4.97976C7.15819 4.7845 6.84165 4.7845 6.64637 4.97976L3.9797 7.64644C3.88207 7.74404 3.83325 7.87204 3.83325 7.99998C3.83325 8.06778 3.84675 8.13244 3.87119 8.19138C3.89559 8.25031 3.93176 8.30558 3.9797 8.35351L6.64637 11.0202C6.84165 11.2154 7.15819 11.2154 7.35345 11.0202C7.54872 10.8249 7.54872 10.5084 7.35345 10.3131L5.54036 8.49998H11.9999C12.2761 8.49998 12.4999 8.27611 12.4999 7.99998C12.4999 7.72384 12.2761 7.49998 11.9999 7.49998H5.54036L7.35345 5.68686Z" fill="#F26522"/>
</svg>
