<svg width="16" height="16" viewBox="0 0 16 16" fill="none" xmlns="http://www.w3.org/2000/svg">
<path d="M8.5 4.66669C8.5 4.39055 8.27613 4.16669 8 4.16669C7.72387 4.16669 7.5 4.39055 7.5 4.66669V8.00002C7.5 8.17242 7.5888 8.33262 7.735 8.42402L9.735 9.67402C9.9692 9.82035 10.2777 9.74922 10.424 9.51502C10.5703 9.28082 10.4992 8.97235 10.265 8.82602L8.5 7.72289V4.66669Z" fill='#595959'/>
<path fill-rule="evenodd" clip-rule="evenodd" d="M8.00008 2.16669C4.77842 2.16669 2.16675 4.77836 2.16675 8.00002C2.16675 11.2217 4.77842 13.8334 8.00008 13.8334C11.2217 13.8334 13.8334 11.2217 13.8334 8.00002C13.8334 4.77836 11.2217 2.16669 8.00008 2.16669ZM3.16675 8.00002C3.16675 5.33065 5.33071 3.16669 8.00008 3.16669C10.6695 3.16669 12.8334 5.33065 12.8334 8.00002C12.8334 10.6694 10.6695 12.8334 8.00008 12.8334C5.33071 12.8334 3.16675 10.6694 3.16675 8.00002Z" fill='#595959'/>
</svg>
