<svg width="16" height="16" viewBox="0 0 16 16" fill="none" xmlns="http://www.w3.org/2000/svg">
<path fill-rule="evenodd" clip-rule="evenodd" d="M2.16675 6.68653C2.16675 4.8862 3.74617 3.5 5.60008 3.5C6.55573 3.5 7.39662 3.94809 8.00008 4.52789C8.60355 3.94809 9.44442 3.5 10.4001 3.5C12.254 3.5 13.8334 4.8862 13.8334 6.68653C13.8334 7.9198 13.3075 9.00427 12.5789 9.921C11.8515 10.8362 10.9001 11.6129 9.98908 12.244C9.64108 12.4851 9.28908 12.7074 8.96695 12.8715C8.66441 13.0255 8.31655 13.1667 8.00008 13.1667C7.68361 13.1667 7.33575 13.0255 7.03321 12.8715C6.71108 12.7074 6.35906 12.4851 6.0111 12.244C5.10011 11.6129 4.14866 10.8362 3.42129 9.921C2.69267 9.00427 2.16675 7.9198 2.16675 6.68653ZM5.60008 4.5C4.21391 4.5 3.16675 5.5194 3.16675 6.68653C3.16675 7.6222 3.56394 8.49333 4.20414 9.2988C4.8456 10.1059 5.70869 10.8179 6.58057 11.422C6.91048 11.6505 7.22122 11.845 7.48708 11.9804C7.77248 12.1257 7.93788 12.1667 8.00008 12.1667C8.06228 12.1667 8.22768 12.1257 8.51308 11.9804C8.77895 11.845 9.08968 11.6505 9.41961 11.422C10.2915 10.8179 11.1545 10.1059 11.796 9.2988C12.4362 8.49333 12.8334 7.6222 12.8334 6.68653C12.8334 5.5194 11.7862 4.5 10.4001 4.5C9.60395 4.5 8.86061 4.97561 8.39648 5.57928C8.30181 5.70237 8.15535 5.77451 8.00008 5.77451C7.84481 5.77451 7.69835 5.70237 7.60368 5.57928C7.13955 4.97561 6.39618 4.5 5.60008 4.5Z" fill='#595959'/>
</svg>
