<svg width="30" height="30" viewBox="0 0 30 30" fill="none" xmlns="http://www.w3.org/2000/svg">
<g clip-path="url(#clip0_17_855)">
<path d="M30 0H0V30H30V0Z" fill="#F26625"/>
<path d="M14 17L8.79999 7.30005H11.2L14.2 13.4C14.2 13.5 14.3 13.6 14.4 13.7C14.5 13.8 14.5 13.9 14.6 14.1L14.7 14.2V14.3C14.8 14.5 14.8 14.6 14.9 14.8C15 14.9 15 15.1 15.1 15.2C15.2 14.9 15.4 14.7 15.5 14.3C15.6 14 15.8 13.7 16 13.4L19 7.30005H21.2L16 17.1V23.3H14V17Z" fill="white"/>
</g>
<defs>
<clipPath id="clip0_17_855">
<rect width="30" height="30" fill="white"/>
</clipPath>
</defs>
</svg>
