<svg width="16" height="16" viewBox="0 0 16 16" fill="none" xmlns="http://www.w3.org/2000/svg">
<path fill-rule="evenodd" clip-rule="evenodd" d="M4.66655 2.16669C4.94269 2.16669 5.16655 2.39055 5.16655 2.66669V3.77844C7.05168 3.61055 8.94808 3.61055 10.8332 3.77844V2.66669C10.8332 2.39055 11.0571 2.16669 11.3332 2.16669C11.6093 2.16669 11.8332 2.39055 11.8332 2.66669V3.87765C12.8285 4.01838 13.6149 4.80567 13.748 5.80991L13.8057 6.24521C14.0484 8.07609 14.0275 9.93229 13.7435 11.7573C13.6028 12.6613 12.8684 13.3557 11.9579 13.4454L11.1625 13.5239C9.05921 13.7313 6.94055 13.7313 4.83717 13.5239L4.04183 13.4454C3.13133 13.3557 2.39689 12.6613 2.25622 11.7573C1.97225 9.93229 1.95129 8.07609 2.19398 6.24521L2.25168 5.80991C2.3848 4.80565 3.17117 4.01836 4.16655 3.87764V2.66669C4.16655 2.39055 4.39041 2.16669 4.66655 2.16669ZM4.96332 4.80189C6.98281 4.60274 9.01695 4.60274 11.0364 4.80189L11.64 4.86142C12.2179 4.9184 12.6804 5.36571 12.7567 5.94131L12.8144 6.37661C12.8345 6.52869 12.8528 6.68095 12.8691 6.83335H3.13059C3.14691 6.68095 3.16515 6.52869 3.18531 6.37662L3.24301 5.94131C3.31931 5.36571 3.78185 4.9184 4.35969 4.86142L4.96332 4.80189ZM3.0511 7.83335C2.98565 9.09209 3.05013 10.3555 3.24433 11.6035C3.31489 12.057 3.68327 12.4052 4.13997 12.4503L4.93531 12.5287C6.97341 12.7297 9.02635 12.7297 11.0644 12.5287L11.8597 12.4503C12.3164 12.4052 12.6848 12.057 12.7554 11.6035C12.9496 10.3555 13.0141 9.09209 12.9486 7.83335H3.0511Z" fill='#595959'/>
</svg>
