<svg width="16" height="16" viewBox="0 0 16 16" fill="none" xmlns="http://www.w3.org/2000/svg">
<path fill-rule="evenodd" clip-rule="evenodd" d="M3.0613 10.2028C1.56272 6.5245 4.26879 2.5 8.24065 2.5H8.45492C11.4254 2.5 13.8334 4.90801 13.8334 7.8784C13.8334 11.1857 11.1523 13.8667 7.84512 13.8667H2.63162C2.41945 13.8667 2.23038 13.7327 2.15996 13.5326C2.08954 13.3325 2.15311 13.1097 2.31854 12.9768L3.63286 11.9213C3.69034 11.8751 3.71066 11.7967 3.68285 11.7285L3.0613 10.2028ZM8.24065 3.5C4.97898 3.5 2.75676 6.80493 3.98739 9.82553L4.60894 11.3512C4.80361 11.829 4.66131 12.3779 4.25903 12.701L4.05273 12.8667H7.84512C10.6 12.8667 12.8334 10.6333 12.8334 7.8784C12.8334 5.46029 10.8731 3.5 8.45492 3.5H8.24065Z" fill='#595959'/>
</svg>
