<svg width="16" height="16" viewBox="0 0 16 16" fill="none" xmlns="http://www.w3.org/2000/svg">
<path d="M4.36362 5.44183C4.22014 5.40398 4.10088 5.30435 4.03811 5.16989C3.97534 5.03543 3.97553 4.88004 4.03864 4.74574L5.1458 2.38948C5.22831 2.21389 5.40494 2.10187 5.59896 2.10211C5.79296 2.10235 5.96932 2.21481 6.05139 2.3906L6.53981 3.43675C6.55727 3.42989 6.5753 3.42394 6.59386 3.41897C9.49206 2.64239 12.4711 4.36233 13.2477 7.26055C14.0243 10.1588 12.3043 13.1378 9.40612 13.9144C6.50786 14.6909 3.52884 12.971 2.75226 10.0728C2.50531 9.15115 2.51087 8.21995 2.72716 7.35408C2.79408 7.08621 3.06552 6.92328 3.33343 6.99021C3.60134 7.05708 3.76427 7.32855 3.69734 7.59648C3.52115 8.30181 3.51629 9.06048 3.71819 9.81401C4.35182 12.1787 6.78252 13.5821 9.14726 12.9485C11.5121 12.3148 12.9154 9.88415 12.2818 7.51941C11.6585 5.19328 9.29646 3.79741 6.96872 4.35544L7.46152 5.41097C7.54359 5.58677 7.51652 5.79417 7.39219 5.94306C7.26779 6.09195 7.06852 6.15544 6.88092 6.10595L4.36362 5.44183Z" fill="#F26522"/>
</svg>
