<svg width="16" height="16" viewBox="0 0 16 16" fill="none" xmlns="http://www.w3.org/2000/svg">
<path fill-rule="evenodd" clip-rule="evenodd" d="M5.16675 5.00002C5.16675 3.43521 6.43527 2.16669 8.00008 2.16669C9.56488 2.16669 10.8334 3.43521 10.8334 5.00002C10.8334 6.56483 9.56488 7.83335 8.00008 7.83335C6.43527 7.83335 5.16675 6.56483 5.16675 5.00002ZM8.00008 3.16669C6.98755 3.16669 6.16675 3.9875 6.16675 5.00002C6.16675 6.01254 6.98755 6.83335 8.00008 6.83335C9.01261 6.83335 9.83341 6.01254 9.83341 5.00002C9.83341 3.9875 9.01261 3.16669 8.00008 3.16669Z" fill='#595959'/>
<path fill-rule="evenodd" clip-rule="evenodd" d="M5.33325 9.83331C4.50483 9.83331 3.83325 10.5049 3.83325 11.3333V12.1255C3.83325 12.1376 3.84199 12.1478 3.8539 12.1498C6.59973 12.5981 9.40012 12.5981 12.1459 12.1498C12.1579 12.1478 12.1666 12.1376 12.1666 12.1255V11.3333C12.1666 10.5049 11.495 9.83331 10.6666 9.83331H10.4393C10.4218 9.83331 10.4043 9.83611 10.3876 9.84151L9.81058 10.03C8.63405 10.4141 7.36579 10.4141 6.18924 10.03L5.61223 9.84151C5.59553 9.83611 5.57807 9.83331 5.5605 9.83331H5.33325ZM2.83325 11.3333C2.83325 9.95258 3.95254 8.83331 5.33325 8.83331H5.5605C5.68349 8.83331 5.80571 8.85278 5.92263 8.89091L6.49964 9.07938C7.47452 9.39765 8.52532 9.39765 9.50018 9.07938L10.0772 8.89091C10.1941 8.85278 10.3163 8.83331 10.4393 8.83331H10.6666C12.0473 8.83331 13.1666 9.95258 13.1666 11.3333V12.1255C13.1666 12.6276 12.8027 13.0558 12.3071 13.1367C9.45452 13.6024 6.54532 13.6024 3.69277 13.1367C3.19717 13.0558 2.83325 12.6276 2.83325 12.1255V11.3333Z" fill='#595959'/>
</svg>
